<?xml version="1.0" encoding="UTF-8" standalone="no"?>
<svg
   viewBox="0 0 462.94823 779.63071"
   width="462.94824"
   height="779.63068"
   version="1.1"
   id="svg231"
   sodipodi:docname="logococo13.0325.svg"
   inkscape:export-filename="..\OneDrive\Desktop\OneDrive\Desktop\OneDrive\Desktop\OneDrive\Desktop\OneDrive\Desktop\OneDrive\Desktop\OneDrive\Desktop\OneDrive\Desktop\coco_smos\logococo13-03.png"
   inkscape:export-xdpi="96"
   inkscape:export-ydpi="96"
   inkscape:version="1.4 (86a8ad7, 2024-10-11)"
   xmlns:inkscape="http://www.inkscape.org/namespaces/inkscape"
   xmlns:sodipodi="http://sodipodi.sourceforge.net/DTD/sodipodi-0.dtd"
   xmlns="http://www.w3.org/2000/svg"
   xmlns:svg="http://www.w3.org/2000/svg">
  <sodipodi:namedview
     id="namedview233"
     pagecolor="#ffffff"
     bordercolor="#000000"
     borderopacity="0.25"
     inkscape:showpageshadow="2"
     inkscape:pageopacity="0.0"
     inkscape:pagecheckerboard="0"
     inkscape:deskcolor="#d1d1d1"
     showgrid="false"
     inkscape:zoom="0.82"
     inkscape:cx="277.43902"
     inkscape:cy="411.58537"
     inkscape:window-width="1154"
     inkscape:window-height="999"
     inkscape:window-x="110"
     inkscape:window-y="39"
     inkscape:window-maximized="0"
     inkscape:current-layer="g1193"
     showguides="true" />
  <desc
     id="desc99">logo coco.dxf - scale = 1.000000, origin = (0.000000, 0.000000), method = manual</desc>
  <defs
     id="defs113" />
  <g
     inkscape:groupmode="layer"
     inkscape:label="Page_1"
     id="g229"
     transform="translate(-152.31661,-192.36613)">
    <g
       id="g1193"
       transform="translate(0,108)">
      <path
         id="path227"
         style="opacity:1;fill:#2b0000;fill-opacity:1;fill-rule:evenodd;stroke:#000000;stroke-width:0.074;stroke-dasharray:none"
         d="m 443.91185,256.90538 c -3.73339,-35.12573 -30.82547,-63.56738 -46.20405,-95.3676 -7.36072,-15.22069 -22.04946,-45.67786 -22.04946,-45.67786 0,0 -2.17347,26.36643 0.15692,39.23586 6.16684,34.05605 36.61687,62.77687 36.01976,97.38161 -0.67916,39.35964 -21.24665,77.71597 -44.76603,109.28306 -26.08766,35.01417 -77.65486,45.97269 -101.9454,82.25668 -17.73781,26.49584 -31.64228,60.14652 -27.16785,91.71611 4.73251,33.3905 26.75618,66.11412 54.55949,85.20073 26.04758,17.88132 62.34796,27.2244 92.85708,19.0139 16.57552,-4.46074 34.29126,-17.60079 38.45054,-34.25451 3.72625,-14.91989 -15.97356,-43.28092 -15.97356,-43.28092 0,0 -4.83112,38.5157 -19.40391,47.42447 -24.09991,14.73298 -61.52426,9.32876 -84.4336,-7.19482 -20.63519,-14.88334 -29.61809,-44.68293 -30.15165,-70.11991 -0.53276,-25.39885 12.15287,-50.70588 27.14402,-71.21566 29.03596,-39.72485 88.96411,-50.50821 115.46688,-91.96607 20.779,-32.50426 31.51823,-74.07274 27.44082,-112.43507 z M 266.69253,647.31012 c 38.81922,23.66264 87.87509,46.86521 131.79153,35.10939 30.65614,-8.20622 65.92496,-35.49191 67.45136,-67.19067 0.73537,-15.27131 -29.23503,-35.34256 -29.23503,-35.34256 0,0 5.06979,32.07292 -2.2058,45.34024 -7.89615,14.39893 -24.13568,25.08632 -40.20463,28.47267 -37.20486,7.8405 -79.4628,-2.71009 -111.77411,-22.75142 -33.93162,-21.04634 -66.39583,-55.25842 -73.56001,-94.53918 -6.80743,-37.32473 12.34633,-77.35124 33.68387,-108.72297 24.43214,-35.92161 72.74269,-49.14937 101.61244,-81.61211 20.08277,-22.58218 40.8073,-39.81416 48.13035,-76.83047 2.43193,-24.70967 -7.17686,-59.6687 -7.17686,-59.6687 0,0 -10.99512,50.301 -24.97562,71.21375 -12.4554,18.63142 -32.23112,31.31515 -50.12145,44.81339 -35.42272,26.7264 -87.45483,34.48544 -112.5616,71.07395 -27.5152,40.09835 -41.296,96.25997 -28.2987,143.12184 12.92679,46.60768 56.145,82.33848 97.44426,107.51285 z m 339.17619,-20.88745 c 5.16461,-78.56944 -66.1643,-171.04779 -143.06436,-187.96558 -62.86002,-13.82902 -144.28907,31.65597 -170.63024,90.38217 -7.53484,16.79849 13.15008,53.64459 13.15008,53.64459 0,0 -0.98119,-34.52346 9.15891,-46.7394 29.5863,-35.64303 84.49383,-63.78875 129.12213,-51.37551 56.1875,15.6284 108.6812,81.08285 105.81976,139.33313 -2.93489,59.74535 -64.32547,115.7884 -122.01975,131.58366 -30.39205,8.32059 -67.39474,-5.6135 -90.62083,-26.90804 -11.49082,-10.53521 -17.14533,-43.51211 -17.14533,-43.51211 0,0 -19.26451,28.25103 -13.33108,41.5212 20.68433,46.26073 89.04902,71.19345 138.85998,61.87869 74.72931,-13.97454 155.71415,-85.9818 160.70073,-161.8428 z M 325.66656,591.69743 c 0,0 7.71989,-28.45681 18.5675,-36.97286 20.02306,-15.71935 50.30679,-25.21912 74.43125,-17.09317 32.64655,10.99649 67.8166,44.9472 66.20242,79.35816 -2.15572,45.95558 -52.4323,90.5257 -97.94576,97.24037 -18.33474,2.70495 -49.08782,-26.10941 -49.08782,-26.10941 0,0 2.19989,28.15947 12.09042,36.12141 17.6191,14.18349 46.28035,15.23148 67.46232,7.29875 47.0494,-17.62018 99.5621,-60.49123 102.33509,-110.65524 2.63762,-47.71519 -39.52638,-101.10702 -85.14536,-115.34094 -35.59974,-11.10774 -83.23876,6.58992 -105.84074,36.25259 -10.10016,13.25538 -3.06932,49.90034 -3.06932,49.90034 z"
         sodipodi:nodetypes="aacaaaaaaaacaaaaaaaaacaaaaaascaaaaaaaacaaaaacaaacaaaacaaaaac" />
    </g>
  </g>
</svg>
